<svg width="1200" height="360" viewBox="0 0 1200 360" fill="none" xmlns="http://www.w3.org/2000/svg">
<path d="M337.675 130.88H382.575C393.629 130.88 402.334 133.915 407.861 139.442C412.271 143.852 414.504 149.264 414.504 155.879V156.165C414.504 167.075 408.691 173.146 401.79 177.012C412.987 181.307 419.888 187.779 419.888 200.779V201.066C419.888 218.734 405.513 227.582 383.692 227.582H337.675V130.88ZM393.342 159.458C393.342 153.101 388.36 149.521 379.397 149.521H358.407V169.967H378.022C387.415 169.967 393.342 166.932 393.342 159.744V159.458ZM382.976 187.664H358.407V208.94H383.692C393.085 208.94 398.755 205.619 398.755 198.431V198.145C398.755 191.644 393.915 187.635 383.005 187.635L382.976 187.664Z" fill="white"/>
<path d="M484.404 130.88C496.689 130.88 506.224 134.345 512.581 140.673C517.965 146.057 520.857 153.645 520.857 162.78V163.066C520.857 178.672 512.438 188.495 500.125 193.048L523.749 227.582H498.893L478.161 196.627H461.438V227.582H440.162V130.88H484.404ZM483.001 177.842C493.367 177.842 499.294 172.315 499.294 164.154V163.868C499.294 154.762 492.937 150.065 482.571 150.065H461.438V177.842H483.001Z" fill="white"/>
<path d="M543.794 130.88H565.07V227.582H543.794V130.88Z" fill="white"/>
<path d="M587.75 179.503V179.217C587.75 151.726 608.482 129.219 638.177 129.219C656.418 129.219 667.328 135.29 676.291 144.138L662.747 159.744C655.301 152.986 647.684 148.834 638.034 148.834C621.74 148.834 610 162.379 610 178.959V179.245C610 195.825 621.454 209.628 638.034 209.628C649.087 209.628 655.845 205.218 663.463 198.288L677.007 211.976C667.071 222.6 656.017 229.243 637.347 229.243C608.883 229.243 587.75 207.279 587.75 179.503Z" fill="white"/>
<path d="M696.737 130.88H718.013V173.146L757.244 130.88H782.93L743.556 171.914L784.734 227.582H759.191L729.21 186.404L718.013 198.002V227.554H696.737V130.88Z" fill="white"/>
<path d="M800.37 130.88H821.646V173.146L860.877 130.88H886.563L847.189 171.914L888.367 227.582H862.824L832.842 186.404L821.646 198.002V227.554H800.37V130.88Z" fill="white"/>
<path d="M903.973 130.88H976.908V149.808H925.106V169.423H970.694V188.351H925.106V208.654H977.596V227.582H903.973V130.88Z" fill="white"/>
<path d="M999.301 130.88H1018.92L1064.22 190.413V130.88H1085.21V227.582H1067.11L1020.29 166.101V227.582H999.301V130.88Z" fill="white"/>
<path d="M244.264 137.223C251.523 137.223 257.408 131.338 257.408 124.079C257.408 116.82 251.523 110.935 244.264 110.935C237.004 110.935 231.12 116.82 231.12 124.079C231.12 131.338 237.004 137.223 244.264 137.223Z" fill="#164FC3"/>
<path d="M244.264 249.051C251.523 249.051 257.408 243.166 257.408 235.906C257.408 228.647 251.523 222.762 244.264 222.762C237.004 222.762 231.12 228.647 231.12 235.906C231.12 243.166 237.004 249.051 244.264 249.051Z" fill="#164FC3"/>
<path d="M141.288 86.7925C141.288 79.3289 135.055 73.317 127.513 73.6642C120.98 73.964 115.536 79.2342 115.047 85.7668C114.558 92.1574 118.645 97.6486 124.357 99.3686C125.541 99.7157 126.33 100.82 126.33 102.051V108.82C126.33 110.067 125.509 111.156 124.31 111.519C118.929 113.16 115 118.162 115 124.079C115 129.996 118.929 134.998 124.31 136.639C125.509 137.002 126.33 138.091 126.33 139.337V146.107C126.33 147.353 125.509 148.442 124.31 148.805C118.929 150.446 115 155.448 115 161.365C115 167.282 118.929 172.285 124.31 173.926C125.509 174.288 126.33 175.377 126.33 176.624V183.393C126.33 184.64 125.509 185.728 124.31 186.091C118.929 187.732 115 192.734 115 198.652C115 204.569 118.929 209.571 124.31 211.212C125.509 211.575 126.33 212.664 126.33 213.91V220.68C126.33 221.926 125.509 223.015 124.31 223.378C118.929 225.019 115 230.021 115 235.938C115 241.855 118.929 246.857 124.31 248.498C125.509 248.861 126.33 249.95 126.33 251.197V257.966C126.33 259.197 125.541 260.285 124.357 260.648C118.645 262.368 114.558 267.875 115.047 274.25C115.552 280.767 120.98 286.037 127.529 286.353C135.071 286.7 141.304 280.688 141.304 273.224C141.304 267.307 137.375 262.305 131.994 260.664C130.795 260.301 129.975 259.212 129.975 257.966V251.197C129.975 249.95 130.795 248.861 131.994 248.498C137.375 246.857 141.304 241.855 141.304 235.938C141.304 230.021 137.375 225.019 131.994 223.378C130.795 223.015 129.975 221.926 129.975 220.68V213.91C129.975 212.664 130.795 211.575 131.994 211.212C137.375 209.571 141.304 204.569 141.304 198.652C141.304 192.734 137.375 187.732 131.994 186.091C130.795 185.728 129.975 184.64 129.975 183.393V176.624C129.975 175.377 130.795 174.288 131.994 173.926C137.375 172.285 141.304 167.282 141.304 161.365C141.304 155.448 137.375 150.446 131.994 148.805C130.795 148.442 129.975 147.353 129.975 146.107V139.337C129.975 138.091 130.795 137.002 131.994 136.639C137.375 134.998 141.304 129.996 141.304 124.079C141.304 118.162 137.375 113.16 131.994 111.519C130.795 111.156 129.975 110.067 129.975 108.82V102.051C129.975 100.804 130.795 99.7157 131.994 99.3528C137.375 97.7117 141.304 92.7097 141.304 86.7925H141.288Z" fill="#164FC3"/>
<path d="M199.34 86.7925C199.34 79.3289 193.107 73.317 185.565 73.6642C179.032 73.964 173.588 79.2342 173.083 85.7668C172.594 92.1574 176.681 97.6486 182.393 99.3686C183.577 99.7157 184.366 100.82 184.366 102.051V108.82C184.366 110.067 183.545 111.156 182.346 111.519C176.965 113.16 173.036 118.162 173.036 124.079C173.036 129.996 176.965 134.998 182.346 136.639C183.545 137.002 184.366 138.091 184.366 139.337V146.107C184.366 147.353 183.545 148.442 182.346 148.805C176.965 150.446 173.036 155.448 173.036 161.365C173.036 167.282 176.965 172.285 182.346 173.926C183.545 174.288 184.366 175.377 184.366 176.624V183.393C184.366 184.64 183.545 185.728 182.346 186.091C176.965 187.732 173.036 192.734 173.036 198.652C173.036 204.569 176.965 209.571 182.346 211.212C183.545 211.575 184.366 212.664 184.366 213.91V220.68C184.366 221.926 183.545 223.015 182.346 223.378C176.965 225.019 173.036 230.021 173.036 235.938C173.036 241.855 176.965 246.857 182.346 248.498C183.545 248.861 184.366 249.95 184.366 251.197V257.966C184.366 259.197 183.577 260.285 182.393 260.648C174.298 263.078 169.486 273.098 176.271 282.471C176.444 282.724 176.665 282.944 176.918 283.118C187.664 290.945 199.34 283.449 199.34 273.224C199.34 267.307 195.411 262.305 190.03 260.664C188.831 260.301 188.011 259.212 188.011 257.966V251.197C188.011 249.95 188.831 248.861 190.03 248.498C195.411 246.857 199.34 241.855 199.34 235.938C199.34 230.021 195.411 225.019 190.03 223.378C188.831 223.015 188.011 221.926 188.011 220.68V213.91C188.011 212.664 188.831 211.575 190.03 211.212C195.411 209.571 199.34 204.569 199.34 198.652C199.34 192.734 195.411 187.732 190.03 186.091C188.831 185.728 188.011 184.64 188.011 183.393V176.624C188.011 175.377 188.831 174.288 190.03 173.926C195.411 172.285 199.34 167.282 199.34 161.365C199.34 155.448 195.411 150.446 190.03 148.805C188.831 148.442 188.011 147.353 188.011 146.107V139.337C188.011 138.091 188.831 137.002 190.03 136.639C195.411 134.998 199.34 129.996 199.34 124.079C199.34 118.162 195.411 113.16 190.03 111.519C188.831 111.156 188.011 110.067 188.011 108.82V102.051C188.011 100.804 188.831 99.7157 190.03 99.3528C195.411 97.7117 199.34 92.7097 199.34 86.7925Z" fill="#164FC3"/>
<path d="M217.044 127.456V120.686C217.044 119.456 217.833 118.367 219.017 118.004C224.729 116.284 228.816 110.777 228.327 104.402C227.822 97.8853 222.394 92.615 215.845 92.2995C208.303 91.9523 202.07 97.9642 202.07 105.428C202.07 111.345 205.999 116.347 211.38 117.988C212.579 118.351 213.399 119.44 213.399 120.686V127.456C213.399 128.686 212.611 129.775 211.427 130.138C203.332 132.568 198.52 142.588 205.305 151.961C205.478 152.213 205.699 152.434 205.952 152.608C216.697 160.434 228.374 152.939 228.374 142.714C228.374 136.797 224.445 131.795 219.064 130.154C217.865 129.791 217.044 128.702 217.044 127.456Z" fill="#164FC3"/>
<path d="M228.374 217.255C228.374 209.792 222.141 203.78 214.599 204.127C208.066 204.427 202.622 209.697 202.117 216.23C201.628 222.62 205.715 228.112 211.427 229.831C212.611 230.179 213.399 231.283 213.399 232.514V239.283C213.399 240.514 212.611 241.603 211.427 241.966C205.715 243.686 201.628 249.193 202.117 255.567C202.622 262.084 208.05 267.355 214.599 267.67C222.141 268.017 228.374 262.005 228.374 254.542C228.374 248.625 224.445 243.623 219.064 241.982C217.865 241.619 217.044 240.53 217.044 239.283V232.514C217.044 231.267 217.865 230.179 219.064 229.816C224.445 228.175 228.374 223.173 228.374 217.255Z" fill="#164FC3"/>
<path d="M170.322 68.1572C170.322 60.6936 164.089 54.6817 156.547 55.0131C150.014 55.3129 144.57 60.5831 144.065 67.1158C143.576 73.5064 147.663 78.9975 153.375 80.7175C154.559 81.0646 155.348 82.1692 155.348 83.4V90.1693C155.348 91.4158 154.527 92.5046 153.328 92.8675C147.947 94.5086 144.018 99.5106 144.018 105.428C144.018 111.345 147.947 116.347 153.328 117.988C154.527 118.351 155.348 119.44 155.348 120.686V127.456C155.348 128.702 154.527 129.791 153.328 130.154C147.947 131.795 144.018 136.797 144.018 142.714C144.018 148.631 147.947 153.633 153.328 155.274C154.527 155.637 155.348 156.726 155.348 157.973V164.742C155.348 165.989 154.527 167.077 153.328 167.44C147.947 169.081 144.018 174.083 144.018 180.001C144.018 185.918 147.947 190.92 153.328 192.561C154.527 192.924 155.348 194.013 155.348 195.259V202.028C155.348 203.275 154.527 204.364 153.328 204.727C147.947 206.368 144.018 211.37 144.018 217.287C144.018 223.204 147.947 228.206 153.328 229.847C154.527 230.21 155.348 231.299 155.348 232.546V239.315C155.348 240.561 154.527 241.65 153.328 242.013C147.947 243.654 144.018 248.656 144.018 254.573C144.018 260.491 147.947 265.493 153.328 267.134C154.527 267.497 155.348 268.585 155.348 269.832V276.601C155.348 277.832 154.559 278.921 153.375 279.284C147.663 281.004 143.576 286.511 144.065 292.885C144.57 299.402 149.998 304.673 156.547 304.988C164.089 305.335 170.322 299.323 170.322 291.86C170.322 285.943 166.393 280.94 161.012 279.299C159.813 278.937 158.993 277.848 158.993 276.601V269.832C158.993 268.585 159.813 267.497 161.012 267.134C166.393 265.493 170.322 260.491 170.322 254.573C170.322 248.656 166.393 243.654 161.012 242.013C159.813 241.65 158.993 240.561 158.993 239.315V232.546C158.993 231.299 159.813 230.21 161.012 229.847C166.393 228.206 170.322 223.204 170.322 217.287C170.322 211.37 166.393 206.368 161.012 204.727C159.813 204.364 158.993 203.275 158.993 202.028V195.259C158.993 194.013 159.813 192.924 161.012 192.561C166.393 190.92 170.322 185.918 170.322 180.001C170.322 174.083 166.393 169.081 161.012 167.44C159.813 167.077 158.993 165.989 158.993 164.742V157.973C158.993 156.726 159.813 155.637 161.012 155.274C166.393 153.633 170.322 148.631 170.322 142.714C170.322 136.797 166.393 131.795 161.012 130.154C159.813 129.791 158.993 128.702 158.993 127.456V120.686C158.993 119.44 159.813 118.351 161.012 117.988C166.393 116.347 170.322 111.345 170.322 105.428C170.322 99.5106 166.393 94.5086 161.012 92.8675C159.813 92.5046 158.993 91.4158 158.993 90.1693V83.4C158.993 82.1534 159.813 81.0646 161.012 80.7017C166.393 79.0607 170.322 74.0586 170.322 68.1414V68.1572Z" fill="#164FC3"/>
</svg>
